<svg width="128" height="128" viewBox="0 0 128 128" fill="none" xmlns="http://www.w3.org/2000/svg">
  <rect width="128" height="128" rx="20" fill="#137fec"/>
  <path d="M64 32C45.6 32 32 45.6 32 64C32 82.4 45.6 96 64 96C82.4 96 96 82.4 96 64C96 45.6 82.4 32 64 32Z" fill="white"/>
  <path d="M64 48C57.6 48 52 53.6 52 60C52 66.4 57.6 72 64 72C70.4 72 76 66.4 76 60C76 53.6 70.4 48 64 48Z" fill="#137fec"/>
  <path d="M56 72H72V88H56V72Z" fill="#137fec"/>
  <path d="M52 88H76V92H52V88Z" fill="#137fec"/>
</svg>